REM DIRINDEX 1\2,1\3,1\4,1\5\6,1\5\7,1\8
REM DIRNAME folder01,folder02,folder03,folder04,folder05,folder06,folder07,folder08
TITLE ""
FILE "166 【166】Unit10 (1873 hold out_1884 tell on ～).mp3" MP3
  TRACK 01 AUDIO
    TITLE "0:"
    INDEX 01 00:00:00
  TRACK 02 AUDIO
    TITLE "2:cjc115_6502"
    INDEX 01 00:00:07
  TRACK 03 AUDIO
    TITLE "0:"
    INDEX 01 00:01:26
  TRACK 04 AUDIO
    TITLE "3:cjc115_6503"
    INDEX 01 00:01:36
  TRACK 05 AUDIO
    TITLE "0:"
    INDEX 01 00:04:01
  TRACK 06 AUDIO
    TITLE "4:cjc115_6504"
    INDEX 01 00:04:15
  TRACK 07 AUDIO
    TITLE "0:"
    INDEX 01 00:06:20
  TRACK 08 AUDIO
    TITLE "2:cjc115_6505"
    INDEX 01 00:07:35
  TRACK 09 AUDIO
    TITLE "0:"
    INDEX 01 00:08:46
  TRACK 10 AUDIO
    TITLE "3:cjc115_6506"
    INDEX 01 00:08:54
  TRACK 11 AUDIO
    TITLE "0:"
    INDEX 01 00:10:31
  TRACK 12 AUDIO
    TITLE "4:cjc115_6507"
    INDEX 01 00:10:43
  TRACK 13 AUDIO
    TITLE "0:"
    INDEX 01 00:14:25
  TRACK 14 AUDIO
    TITLE "2:cjc115_6508"
    INDEX 01 00:15:42
  TRACK 15 AUDIO
    TITLE "0:"
    INDEX 01 00:16:55
  TRACK 16 AUDIO
    TITLE "3:cjc115_6509"
    INDEX 01 00:16:71
  TRACK 17 AUDIO
    TITLE "0:"
    INDEX 01 00:18:56
  TRACK 18 AUDIO
    TITLE "4:cjc115_6510"
    INDEX 01 00:18:72
  TRACK 19 AUDIO
    TITLE "0:"
    INDEX 01 00:24:10
  TRACK 20 AUDIO
    TITLE "2:cjc115_6511"
    INDEX 01 00:25:27
  TRACK 21 AUDIO
    TITLE "0:"
    INDEX 01 00:26:50
  TRACK 22 AUDIO
    TITLE "3:cjc115_6512"
    INDEX 01 00:26:66
  TRACK 23 AUDIO
    TITLE "0:"
    INDEX 01 00:28:64
  TRACK 24 AUDIO
    TITLE "4:cjc115_6513"
    INDEX 01 00:29:03
  TRACK 25 AUDIO
    TITLE "0:"
    INDEX 01 00:32:74
  TRACK 26 AUDIO
    TITLE "2:cjc115_6514"
    INDEX 01 00:34:14
  TRACK 27 AUDIO
    TITLE "0:"
    INDEX 01 00:35:49
  TRACK 28 AUDIO
    TITLE "3:cjc115_6515"
    INDEX 01 00:35:66
  TRACK 29 AUDIO
    TITLE "0:"
    INDEX 01 00:37:67
  TRACK 30 AUDIO
    TITLE "4:cjc115_6516"
    INDEX 01 00:38:06
  TRACK 31 AUDIO
    TITLE "0:"
    INDEX 01 00:42:25
  TRACK 32 AUDIO
    TITLE "2:cjc115_6517"
    INDEX 01 00:43:39
  TRACK 33 AUDIO
    TITLE "0:"
    INDEX 01 00:44:65
  TRACK 34 AUDIO
    TITLE "3:cjc115_6518"
    INDEX 01 00:45:04
  TRACK 35 AUDIO
    TITLE "0:"
    INDEX 01 00:47:52
  TRACK 36 AUDIO
    TITLE "4:cjc115_6519"
    INDEX 01 00:47:66
  TRACK 37 AUDIO
    TITLE "0:"
    INDEX 01 00:51:26
  TRACK 38 AUDIO
    TITLE "2:cjc115_6520"
    INDEX 01 00:52:41
  TRACK 39 AUDIO
    TITLE "0:"
    INDEX 01 00:53:74
  TRACK 40 AUDIO
    TITLE "3:cjc115_6521"
    INDEX 01 00:54:09
  TRACK 41 AUDIO
    TITLE "0:"
    INDEX 01 00:57:45
  TRACK 42 AUDIO
    TITLE "4:cjc115_6522"
    INDEX 01 00:57:56
  TRACK 43 AUDIO
    TITLE "0:"
    INDEX 01 01:01:29
  TRACK 44 AUDIO
    TITLE "2:cjc115_6523"
    INDEX 01 01:02:42
  TRACK 45 AUDIO
    TITLE "0:"
    INDEX 01 01:03:67
  TRACK 46 AUDIO
    TITLE "3:cjc115_6524"
    INDEX 01 01:04:09
  TRACK 47 AUDIO
    TITLE "0:"
    INDEX 01 01:06:26
  TRACK 48 AUDIO
    TITLE "4:cjc115_6525"
    INDEX 01 01:06:38
  TRACK 49 AUDIO
    TITLE "0:"
    INDEX 01 01:10:04
  TRACK 50 AUDIO
    TITLE "2:cjc115_6526"
    INDEX 01 01:11:21
  TRACK 51 AUDIO
    TITLE "0:"
    INDEX 01 01:12:28
  TRACK 52 AUDIO
    TITLE "3:cjc115_6527"
    INDEX 01 01:12:46
  TRACK 53 AUDIO
    TITLE "0:"
    INDEX 01 01:14:04
  TRACK 54 AUDIO
    TITLE "4:cjc115_6528"
    INDEX 01 01:14:19
  TRACK 55 AUDIO
    TITLE "0:"
    INDEX 01 01:17:04
  TRACK 56 AUDIO
    TITLE "2:cjc115_6529"
    INDEX 01 01:18:19
  TRACK 57 AUDIO
    TITLE "0:"
    INDEX 01 01:19:27
  TRACK 58 AUDIO
    TITLE "3:cjc115_6530"
    INDEX 01 01:19:38
  TRACK 59 AUDIO
    TITLE "0:"
    INDEX 01 01:21:69
  TRACK 60 AUDIO
    TITLE "4:cjc115_6531"
    INDEX 01 01:22:03
  TRACK 61 AUDIO
    TITLE "0:"
    INDEX 01 01:25:37
  TRACK 62 AUDIO
    TITLE "2:cjc115_6532"
    INDEX 01 01:26:50
  TRACK 63 AUDIO
    TITLE "0:"
    INDEX 01 01:28:14
  TRACK 64 AUDIO
    TITLE "3:cjc115_6533"
    INDEX 01 01:28:29
  TRACK 65 AUDIO
    TITLE "0:"
    INDEX 01 01:33:25
  TRACK 66 AUDIO
    TITLE "4:cjc115_6534"
    INDEX 01 01:33:38
  TRACK 67 AUDIO
    TITLE "0:"
    INDEX 01 01:36:41
  TRACK 68 AUDIO
    TITLE "2:cjc115_6535"
    INDEX 01 01:37:56
  TRACK 69 AUDIO
    TITLE "0:"
    INDEX 01 01:38:67
  TRACK 70 AUDIO
    TITLE "3:cjc115_6536"
    INDEX 01 01:39:10
  TRACK 71 AUDIO
    TITLE "0:"
    INDEX 01 01:40:70
  TRACK 72 AUDIO
    TITLE "4:cjc115_6537"
    INDEX 01 01:41:09
  TRACK 73 AUDIO
    TITLE "0:"
    INDEX 01 01:44:32
